<svg width="400" height="71" viewBox="0 0 400 71" fill="none" xmlns="http://www.w3.org/2000/svg">
<path d="M52.1351 69.4691H36.53L19.5506 42.1602L13.7431 46.3275V69.4691H0V4.65492H13.7431V34.3134C14.6593 33.0425 15.5607 31.7716 16.4474 30.5008C17.334 29.2299 18.2354 27.959 19.1517 26.6882L36.7073 4.65492H51.9577L29.3481 33.3381L52.1351 69.4691Z" fill="#1D2939"/>
<path d="M102.454 44.5985C102.454 48.7362 101.893 52.4011 100.77 55.593C99.6761 58.7849 98.0653 61.4892 95.9374 63.7058C93.839 65.8929 91.2972 67.548 88.3122 68.6711C85.3567 69.7942 82.017 70.3557 78.293 70.3557C74.8055 70.3557 71.5988 69.7942 68.6729 68.6711C65.7765 67.548 63.2495 65.8929 61.092 63.7058C58.964 61.4892 57.309 58.7849 56.1268 55.593C54.9741 52.4011 54.3978 48.7362 54.3978 44.5985C54.3978 39.1013 55.3731 34.4464 57.3237 30.6338C59.2744 26.8212 62.0525 23.9248 65.6582 21.9446C69.264 19.9644 73.5642 18.9743 78.559 18.9743C83.1992 18.9743 87.3073 19.9644 90.8835 21.9446C94.4892 23.9248 97.3117 26.8212 99.351 30.6338C101.42 34.4464 102.454 39.1013 102.454 44.5985ZM68.1852 44.5985C68.1852 47.8496 68.5399 50.5834 69.2492 52.8C69.9585 55.0167 71.0668 56.6865 72.5741 57.8096C74.0814 58.9327 76.0468 59.4943 78.4704 59.4943C80.8643 59.4943 82.8002 58.9327 84.2779 57.8096C85.7852 56.6865 86.8788 55.0167 87.5585 52.8C88.2678 50.5834 88.6225 47.8496 88.6225 44.5985C88.6225 41.3179 88.2678 38.5989 87.5585 36.4413C86.8788 34.2543 85.7852 32.614 84.2779 31.5204C82.7706 30.4269 80.8052 29.8801 78.3817 29.8801C74.8055 29.8801 72.2047 31.1067 70.5792 33.5597C68.9832 36.0128 68.1852 39.6924 68.1852 44.5985Z" fill="#1D2939"/>
<path d="M139.474 18.9743C140.153 18.9743 140.937 19.0187 141.823 19.1073C142.74 19.1664 143.478 19.2551 144.04 19.3733L143.02 32.0524C142.577 31.9046 141.942 31.8012 141.114 31.7421C140.316 31.6534 139.621 31.6091 139.03 31.6091C137.287 31.6091 135.587 31.8308 133.932 32.2741C132.307 32.7174 130.844 33.4415 129.543 34.4464C128.243 35.4217 127.208 36.7221 126.44 38.3476C125.701 39.9436 125.332 41.909 125.332 44.2439V69.4691H111.81V19.9053H122.051L124.046 28.2398H124.711C125.686 26.5552 126.898 25.0183 128.346 23.6292C129.824 22.2106 131.494 21.0875 133.356 20.26C135.247 19.4029 137.287 18.9743 139.474 18.9743Z" fill="#1D2939"/>
<path d="M178.621 30.0575H166.917V69.4691H153.396V30.0575H145.948V23.5406L153.396 19.9053V16.27C153.396 12.0437 154.105 8.76306 155.524 6.42822C156.972 4.06382 158.997 2.40873 161.597 1.46297C164.228 0.487658 167.331 0 170.907 0C173.538 0 175.932 0.221663 178.089 0.664988C180.247 1.07876 182.005 1.55164 183.365 2.08363L179.907 12.0141C178.872 11.689 177.749 11.3935 176.537 11.1275C175.326 10.8615 173.937 10.7285 172.37 10.7285C170.479 10.7285 169.09 11.3048 168.203 12.4574C167.346 13.5805 166.917 15.0287 166.917 16.802V19.9053H178.621V30.0575Z" fill="#1D2939"/>
<path d="M198.129 0.487658V16.536C198.129 18.398 198.07 20.2452 197.952 22.0776C197.863 23.91 197.745 25.3287 197.597 26.3335H198.129C199.43 24.2942 201.203 22.5653 203.449 21.1466C205.695 19.6984 208.606 18.9743 212.183 18.9743C217.739 18.9743 222.246 21.1466 225.704 25.4912C229.162 29.8358 230.891 36.2049 230.891 44.5985C230.891 50.2435 230.093 54.9871 228.497 58.8293C226.901 62.6419 224.67 65.5235 221.803 67.4741C218.936 69.3952 215.611 70.3557 211.828 70.3557C208.193 70.3557 205.326 69.7055 203.227 68.4051C201.129 67.1047 199.43 65.6417 198.129 64.0162H197.198L194.937 69.4691H184.608V0.487658H198.129ZM207.838 29.7915C205.474 29.7915 203.597 30.2791 202.208 31.2544C200.819 32.2297 199.799 33.6927 199.149 35.6434C198.528 37.594 198.188 40.0618 198.129 43.0469V44.5099C198.129 49.3273 198.838 53.0217 200.257 55.593C201.676 58.1347 204.262 59.4056 208.015 59.4056C210.794 59.4056 212.995 58.1199 214.621 55.5487C216.276 52.9774 217.103 49.2682 217.103 44.4212C217.103 39.5742 216.276 35.9241 214.621 33.4711C212.966 31.018 210.705 29.7915 207.838 29.7915Z" fill="#1D2939"/>
<path d="M260.551 18.8857C267.201 18.8857 272.299 20.3339 275.846 23.2302C279.392 26.1266 281.166 30.5303 281.166 36.4413V69.4691H271.723L269.107 62.7305H268.753C267.334 64.5038 265.886 65.952 264.408 67.0751C262.93 68.1982 261.231 69.0257 259.31 69.5577C257.389 70.0897 255.054 70.3557 252.305 70.3557C249.379 70.3557 246.749 69.7942 244.414 68.6711C242.109 67.548 240.291 65.8338 238.961 63.5285C237.631 61.1937 236.966 58.2382 236.966 54.662C236.966 49.4012 238.813 45.5295 242.508 43.0469C246.202 40.5347 251.744 39.1456 259.133 38.8796L267.733 38.6136V36.4413C267.733 33.8405 267.053 31.9342 265.694 30.7224C264.334 29.5107 262.443 28.9048 260.019 28.9048C257.625 28.9048 255.276 29.2447 252.97 29.9245C250.665 30.6042 248.36 31.4613 246.054 32.4957L241.577 23.3632C244.207 21.9742 247.148 20.8806 250.399 20.0826C253.68 19.2847 257.064 18.8857 260.551 18.8857ZM267.733 46.5048L262.502 46.6822C258.128 46.8004 255.083 47.5836 253.369 49.0318C251.685 50.48 250.842 52.3863 250.842 54.7507C250.842 56.8195 251.448 58.2973 252.66 59.1839C253.872 60.041 255.453 60.4696 257.404 60.4696C260.3 60.4696 262.738 59.6125 264.718 57.8983C266.728 56.1841 267.733 53.7458 267.733 50.5834V46.5048Z" fill="#1D2939"/>
<path d="M306.836 69.4691H293.315V0.487658H306.836V19.9053V30.2348V61.4892V69.4691Z" fill="#1D2939"/>
<path d="M346.932 69.4691H306.836V61.4892L330.751 30.2348H306.836V19.9053H346.134V28.6831L323.791 59.1396H346.932V69.4691Z" fill="white"/>
<path d="M400 44.5985C400 48.7362 399.438 52.4011 398.315 55.593C397.222 58.7849 395.611 61.4892 393.483 63.7058C391.385 65.8929 388.843 67.548 385.858 68.6711C382.902 69.7942 379.563 70.3557 375.839 70.3557C372.351 70.3557 369.145 69.7942 366.219 68.6711C363.322 67.548 360.795 65.8929 358.638 63.7058C356.51 61.4892 354.855 58.7849 353.673 55.593C352.52 52.4011 351.944 48.7362 351.944 44.5985C351.944 39.1013 352.919 34.4464 354.869 30.6338C356.82 26.8212 359.598 23.9248 363.204 21.9446C366.81 19.9644 371.11 18.9743 376.105 18.9743C380.745 18.9743 384.853 19.9644 388.429 21.9446C392.035 23.9248 394.857 26.8212 396.897 30.6338C398.966 34.4464 400 39.1013 400 44.5985ZM365.731 44.5985C365.731 47.8496 366.086 50.5834 366.795 52.8C367.504 55.0167 368.613 56.6865 370.12 57.8096C371.627 58.9327 373.593 59.4943 376.016 59.4943C378.41 59.4943 380.346 58.9327 381.824 57.8096C383.331 56.6865 384.424 55.0167 385.104 52.8C385.814 50.5834 386.168 47.8496 386.168 44.5985C386.168 41.3179 385.814 38.5989 385.104 36.4413C384.424 34.2543 383.331 32.614 381.824 31.5204C380.316 30.4269 378.351 29.8801 375.927 29.8801C372.351 29.8801 369.75 31.1067 368.125 33.5597C366.529 36.0128 365.731 39.6924 365.731 44.5985Z" fill="white"/>
</svg>
