<svg width="172" height="30" viewBox="0 0 172 30" fill="none" xmlns="http://www.w3.org/2000/svg">
<path d="M22.9497 29.6219H16.2957L9.0556 17.9773L6.57923 19.7543V29.6219H0.719116V1.98488H6.57923V14.6314C6.9699 14.0895 7.35428 13.5476 7.73235 13.0057C8.11042 12.4638 8.49479 11.9219 8.88547 11.38L16.3713 1.98488H22.8741L13.2333 14.2155L22.9497 29.6219Z" fill="#1D2939"/>
<path d="M44.4061 19.017C44.4061 20.7813 44.1666 22.344 43.6877 23.7051C43.2215 25.0662 42.5346 26.2193 41.6272 27.1645C40.7325 28.097 39.6487 28.8028 38.3758 29.2817C37.1156 29.7606 35.6915 30 34.1036 30C32.6165 30 31.2492 29.7606 30.0015 29.2817C28.7665 28.8028 27.689 28.097 26.769 27.1645C25.8617 26.2193 25.1559 25.0662 24.6518 23.7051C24.1603 22.344 23.9146 20.7813 23.9146 19.017C23.9146 16.673 24.3305 14.6881 25.1622 13.0624C25.994 11.4367 27.1786 10.2016 28.7161 9.35728C30.2536 8.51292 32.0872 8.09074 34.217 8.09074C36.1956 8.09074 37.9473 8.51292 39.4722 9.35728C41.0097 10.2016 42.2133 11.4367 43.0828 13.0624C43.965 14.6881 44.4061 16.673 44.4061 19.017ZM29.7936 19.017C29.7936 20.4033 29.9448 21.569 30.2473 22.5142C30.5497 23.4594 31.0223 24.1714 31.6651 24.6503C32.3078 25.1292 33.1458 25.3686 34.1792 25.3686C35.2 25.3686 36.0255 25.1292 36.6556 24.6503C37.2983 24.1714 37.7646 23.4594 38.0545 22.5142C38.3569 21.569 38.5082 20.4033 38.5082 19.017C38.5082 17.6181 38.3569 16.4587 38.0545 15.5388C37.7646 14.6062 37.2983 13.9067 36.6556 13.4405C36.0129 12.9742 35.1748 12.741 34.1414 12.741C32.6165 12.741 31.5075 13.264 30.8144 14.31C30.1339 15.356 29.7936 16.925 29.7936 19.017Z" fill="#1D2939"/>
<path d="M60.1913 8.09074C60.4812 8.09074 60.8152 8.10964 61.1932 8.14745C61.5839 8.17265 61.899 8.21046 62.1384 8.26087L61.7036 13.6673C61.5146 13.6043 61.2436 13.5602 60.8908 13.535C60.5505 13.4972 60.2543 13.4783 60.0023 13.4783C59.2588 13.4783 58.5341 13.5728 57.8284 13.7618C57.1353 13.9509 56.5114 14.2596 55.9569 14.6881C55.4024 15.104 54.9613 15.6585 54.6337 16.3516C54.3186 17.0321 54.1611 17.8702 54.1611 18.8658V29.6219H48.3955V8.48771H52.7622L53.6129 12.0416H53.8964C54.3123 11.3233 54.829 10.6679 55.4465 10.0756C56.0766 9.4707 56.7887 8.99181 57.5826 8.63894C58.3892 8.27347 59.2588 8.09074 60.1913 8.09074Z" fill="#1D2939"/>
<path d="M76.884 12.8166H71.8934V29.6219H66.1278V12.8166H62.952V10.0378L66.1278 8.48771V6.93762C66.1278 5.13548 66.4303 3.73661 67.0352 2.74102C67.6527 1.73283 68.516 1.0271 69.625 0.623819C70.7466 0.20794 72.0698 0 73.5947 0C74.7163 0 75.7371 0.094518 76.6571 0.283554C77.5771 0.459987 78.3269 0.661626 78.9066 0.888469L77.4322 5.12287C76.9911 4.98425 76.5122 4.85822 75.9955 4.7448C75.4788 4.63138 74.8865 4.57467 74.2186 4.57467C73.412 4.57467 72.8197 4.82042 72.4416 5.31191C72.0761 5.7908 71.8934 6.40832 71.8934 7.16446V8.48771H76.884V12.8166Z" fill="#1D2939"/>
<path d="M85.2023 0.20794V7.05104C85.2023 7.84499 85.1771 8.63264 85.1267 9.41399C85.0889 10.1953 85.0385 10.8003 84.9755 11.2287H85.2023C85.7568 10.3592 86.5129 9.62193 87.4707 9.01701C88.4285 8.3995 89.6698 8.09074 91.1947 8.09074C93.564 8.09074 95.4858 9.01701 96.9603 10.8696C98.4348 12.7221 99.1721 15.4379 99.1721 19.017C99.1721 21.4241 98.8318 23.4468 98.1513 25.0851C97.4707 26.7108 96.5192 27.9395 95.2968 28.7713C94.0744 29.5904 92.6566 30 91.0435 30C89.4934 30 88.271 29.7227 87.3762 29.1682C86.4814 28.6137 85.7568 27.9899 85.2023 27.2968H84.8053L83.8412 29.6219H79.4367V0.20794H85.2023ZM89.3422 12.7032C88.334 12.7032 87.5337 12.9112 86.9414 13.327C86.3491 13.7429 85.9143 14.3667 85.6371 15.1985C85.3724 16.0302 85.2275 17.0825 85.2023 18.3554V18.9792C85.2023 21.0334 85.5048 22.6087 86.1097 23.7051C86.7146 24.7889 87.8173 25.3308 89.4178 25.3308C90.6024 25.3308 91.5413 24.7826 92.2344 23.6862C92.9402 22.5898 93.293 21.0082 93.293 18.9414C93.293 16.8746 92.9402 15.3182 92.2344 14.2722C91.5287 13.2262 90.5646 12.7032 89.3422 12.7032Z" fill="#1D2939"/>
<path d="M111.819 8.05293C114.655 8.05293 116.829 8.67045 118.341 9.90548C119.853 11.1405 120.609 13.0183 120.609 15.5388V29.6219H116.583L115.468 26.7486H115.316C114.712 27.5047 114.094 28.1222 113.464 28.6011C112.834 29.08 112.109 29.4329 111.29 29.6597C110.471 29.8866 109.475 30 108.303 30C107.056 30 105.934 29.7606 104.938 29.2817C103.955 28.8028 103.18 28.0718 102.613 27.0888C102.046 26.0933 101.763 24.833 101.763 23.3081C101.763 21.0649 102.55 19.414 104.126 18.3554C105.701 17.2842 108.064 16.6919 111.214 16.5785L114.882 16.465V15.5388C114.882 14.4297 114.592 13.6169 114.012 13.1002C113.432 12.5835 112.626 12.3251 111.592 12.3251C110.572 12.3251 109.57 12.4701 108.587 12.7599C107.604 13.0498 106.621 13.4152 105.638 13.8563L103.729 9.96219C104.85 9.36988 106.104 8.90359 107.49 8.56333C108.889 8.22306 110.332 8.05293 111.819 8.05293ZM114.882 19.8299L112.651 19.9055C110.786 19.9559 109.488 20.2899 108.757 20.9074C108.039 21.5249 107.679 22.3377 107.679 23.3459C107.679 24.2281 107.938 24.8582 108.454 25.2363C108.971 25.6018 109.645 25.7845 110.477 25.7845C111.712 25.7845 112.752 25.419 113.596 24.6881C114.453 23.9572 114.882 22.9175 114.882 21.569V19.8299Z" fill="#1D2939"/>
<path d="M131.555 29.6219H125.79V0.20794H131.555V8.48771V12.8923V26.2193V29.6219Z" fill="#1D2939"/>
<path d="M148.653 29.6219H131.555V26.2193L141.753 12.8923H131.555V8.48771H148.312V12.2306L138.785 25.2174H148.653V29.6219Z" fill="#FFDB2F"/>
<path d="M171.281 19.017C171.281 20.7813 171.041 22.344 170.563 23.7051C170.096 25.0662 169.409 26.2193 168.502 27.1645C167.607 28.097 166.524 28.8028 165.251 29.2817C163.99 29.7606 162.566 30 160.978 30C159.491 30 158.124 29.7606 156.876 29.2817C155.641 28.8028 154.564 28.097 153.644 27.1645C152.737 26.2193 152.031 25.0662 151.527 23.7051C151.035 22.344 150.789 20.7813 150.789 19.017C150.789 16.673 151.205 14.6881 152.037 13.0624C152.869 11.4367 154.053 10.2016 155.591 9.35728C157.128 8.51292 158.962 8.09074 161.092 8.09074C163.07 8.09074 164.822 8.51292 166.347 9.35728C167.885 10.2016 169.088 11.4367 169.958 13.0624C170.84 14.6881 171.281 16.673 171.281 19.017ZM156.668 19.017C156.668 20.4033 156.82 21.569 157.122 22.5142C157.425 23.4594 157.897 24.1714 158.54 24.6503C159.183 25.1292 160.021 25.3686 161.054 25.3686C162.075 25.3686 162.9 25.1292 163.53 24.6503C164.173 24.1714 164.639 23.4594 164.929 22.5142C165.232 21.569 165.383 20.4033 165.383 19.017C165.383 17.6181 165.232 16.4587 164.929 15.5388C164.639 14.6062 164.173 13.9067 163.53 13.4405C162.888 12.9742 162.05 12.741 161.016 12.741C159.491 12.741 158.382 13.264 157.689 14.31C157.009 15.356 156.668 16.925 156.668 19.017Z" fill="#FFDB2F"/>
</svg>
